<?xml version="1.0" encoding="UTF-8" standalone="no"?>
<!DOCTYPE svg PUBLIC "-//W3C//DTD SVG 1.1//EN" "http://www.w3.org/Graphics/SVG/1.1/DTD/svg11.dtd">
<svg width="100%" height="100%" viewBox="0 0 144 144" version="1.1" xmlns="http://www.w3.org/2000/svg" xmlns:xlink="http://www.w3.org/1999/xlink" xml:space="preserve" xmlns:serif="http://www.serif.com/" style="fill-rule:evenodd;clip-rule:evenodd;stroke-linejoin:round;stroke-miterlimit:2;">
    <g transform="matrix(1,0,0,1,-178.582,-5.32907e-15)">
        <g id="actionimage" transform="matrix(1.18217,0,0,1.18217,-20.629,-5.30264)">
            <rect x="168.513" y="4.486" width="121.81" height="121.81" style="fill:none;"/>
            <g transform="matrix(0.972222,0,0,0.972222,8.53279,1.81641)">
                <g transform="matrix(3.77933,0,0,3.77933,-574.526,-15.6022)">
                    <circle cx="212.134" cy="6.628" r="1.312" style="fill:rgb(239,239,239);"/>
                </g>
                <g transform="matrix(2.67239,2.67239,-2.67239,2.67239,-282.436,-558.783)">
                    <circle cx="212.134" cy="6.628" r="1.312" style="fill:rgb(239,239,239);"/>
                </g>
                <g transform="matrix(3.65055,0.978162,-0.978162,3.65055,-526.245,-220.343)">
                    <circle cx="212.134" cy="6.628" r="1.312" style="fill:rgb(239,239,239);"/>
                </g>
                <g transform="matrix(3.27299,1.88966,-1.88966,3.27299,-426.619,-405.612)">
                    <circle cx="212.134" cy="6.628" r="1.312" style="fill:rgb(239,239,239);"/>
                </g>
                <g transform="matrix(1.88966,3.27299,-3.27299,1.88966,-103.523,-669.418)">
                    <circle cx="212.134" cy="6.628" r="1.312" style="fill:rgb(239,239,239);"/>
                </g>
                <g transform="matrix(0.978162,3.65055,-3.65055,0.978162,97.9288,-729.976)">
                    <circle cx="212.134" cy="6.628" r="1.312" style="fill:rgb(239,239,239);"/>
                </g>
                <g transform="matrix(2.31417e-16,3.77933,-3.77933,2.31417e-16,308.19,-736.332)">
                    <circle cx="212.134" cy="6.628" r="1.312" style="fill:rgb(239,239,239);"/>
                </g>
                <g transform="matrix(-0.978162,3.65055,-3.65055,-0.978162,512.931,-688.051)">
                    <circle cx="212.134" cy="6.628" r="1.312" style="fill:rgb(239,239,239);"/>
                </g>
                <g transform="matrix(-1.88966,3.27299,-3.27299,-1.88966,698.2,-588.425)">
                    <circle cx="212.134" cy="6.628" r="1.312" style="fill:rgb(239,239,239);"/>
                </g>
                <g transform="matrix(-2.67239,2.67239,-2.67239,-2.67239,851.37,-444.242)">
                    <circle cx="212.134" cy="6.628" r="1.312" style="fill:rgb(239,239,239);"/>
                </g>
                <g transform="matrix(-3.27299,1.88966,-1.88966,-3.27299,962.005,-265.329)">
                    <circle cx="212.134" cy="6.628" r="1.312" style="fill:rgb(239,239,239);"/>
                </g>
                <g transform="matrix(-3.65055,0.978162,-0.978162,-3.65055,1022.56,-63.8772)">
                    <circle cx="212.134" cy="6.628" r="1.312" style="fill:rgb(239,239,239);"/>
                </g>
                <g transform="matrix(-3.77933,4.62834e-16,-4.62834e-16,-3.77933,1028.92,146.384)">
                    <circle cx="212.134" cy="6.628" r="1.312" style="fill:rgb(239,239,239);"/>
                </g>
                <g transform="matrix(-3.65055,-0.978162,0.978162,-3.65055,980.638,351.125)">
                    <circle cx="212.134" cy="6.628" r="1.312" style="fill:rgb(239,239,239);"/>
                </g>
                <g transform="matrix(-3.27299,-1.88966,1.88966,-3.27299,881.012,536.394)">
                    <circle cx="212.134" cy="6.628" r="1.312" style="fill:rgb(239,239,239);"/>
                </g>
                <g transform="matrix(-2.67239,-2.67239,2.67239,-2.67239,736.829,689.565)">
                    <circle cx="212.134" cy="6.628" r="1.312" style="fill:rgb(239,239,239);"/>
                </g>
                <g transform="matrix(-1.88966,-3.27299,3.27299,-1.88966,557.916,800.199)">
                    <circle cx="212.134" cy="6.628" r="1.312" style="fill:rgb(239,239,239);"/>
                </g>
                <g transform="matrix(-0.978162,-3.65055,3.65055,-0.978162,356.464,860.757)">
                    <circle cx="212.134" cy="6.628" r="1.312" style="fill:rgb(239,239,239);"/>
                </g>
                <g transform="matrix(-6.94251e-16,-3.77933,3.77933,-6.94251e-16,146.204,867.113)">
                    <circle cx="212.134" cy="6.628" r="1.312" style="fill:rgb(239,239,239);"/>
                </g>
                <g transform="matrix(0.978162,-3.65055,3.65055,0.978162,-58.5375,818.832)">
                    <circle cx="212.134" cy="6.628" r="1.312" style="fill:rgb(239,239,239);"/>
                </g>
                <g transform="matrix(1.88966,-3.27299,3.27299,1.88966,-243.806,719.206)">
                    <circle cx="212.134" cy="6.628" r="1.312" style="fill:rgb(239,239,239);"/>
                </g>
                <g transform="matrix(2.67239,-2.67239,2.67239,2.67239,-396.977,575.023)">
                    <circle cx="212.134" cy="6.628" r="1.312" style="fill:rgb(239,239,239);"/>
                </g>
                <g transform="matrix(3.27299,-1.88966,1.88966,3.27299,-507.612,396.11)">
                    <circle cx="212.134" cy="6.628" r="1.312" style="fill:rgb(239,239,239);"/>
                </g>
                <g transform="matrix(3.65055,-0.978162,0.978162,3.65055,-568.17,194.659)">
                    <circle cx="212.134" cy="6.628" r="1.312" style="fill:rgb(239,239,239);"/>
                </g>
            </g>
            <g transform="matrix(3.73638,0,0,3.98444,-524.479,-16.8022)">
                <text x="193.542px" y="20px" style="font-family:'Verdana-Bold', 'Verdana', sans-serif;font-weight:700;font-size:10.55px;fill:rgb(239,239,239);">12</text>
                <text x="193.542px" y="28.917px" style="font-family:'Verdana-Bold', 'Verdana', sans-serif;font-weight:700;font-size:10.55px;fill:rgb(239,239,239);">34</text>
            </g>
        </g>
    </g>
</svg>
