<?xml version="1.0" encoding="UTF-8" standalone="no"?>
<!DOCTYPE svg PUBLIC "-//W3C//DTD SVG 1.1//EN" "http://www.w3.org/Graphics/SVG/1.1/DTD/svg11.dtd">
<svg width="100%" height="100%" viewBox="0 0 144 144" version="1.1" xmlns="http://www.w3.org/2000/svg" xmlns:xlink="http://www.w3.org/1999/xlink" xml:space="preserve" xmlns:serif="http://www.serif.com/" style="fill-rule:evenodd;clip-rule:evenodd;stroke-linejoin:round;stroke-miterlimit:2;">
    <g transform="matrix(1,0,0,1,-257.582,-3.86638)">
        <g id="actionimage" transform="matrix(1.18217,0,0,1.18217,58.371,-1.43627)">
            <rect x="168.513" y="4.486" width="121.81" height="121.81" style="fill:none;"/>
            <g transform="matrix(1.0797,0,0,1.0797,150.877,-8.04305)">
                <g transform="matrix(0.937742,0,0,1,2.92012,0)">
                    <g transform="matrix(42.2411,0,0,42.2411,46.9035,65.7407)">
                        <path d="M0.529,-0L0.136,-0L0.136,-0.074L0.287,-0.074L0.287,-0.562L0.136,-0.562L0.136,-0.628C0.156,-0.628 0.178,-0.63 0.202,-0.633C0.225,-0.636 0.243,-0.641 0.255,-0.648C0.27,-0.656 0.282,-0.666 0.29,-0.679C0.299,-0.691 0.304,-0.708 0.305,-0.729L0.381,-0.729L0.381,-0.074L0.529,-0.074L0.529,-0Z" style="fill:rgb(239,239,239);fill-rule:nonzero;"/>
                    </g>
                    <g transform="matrix(42.2411,0,0,42.2411,73.758,65.7407)">
                        <path d="M0.571,-0L0.079,-0L0.079,-0.102C0.113,-0.131 0.147,-0.161 0.181,-0.19C0.216,-0.219 0.248,-0.248 0.277,-0.277C0.34,-0.338 0.383,-0.386 0.406,-0.422C0.429,-0.457 0.44,-0.496 0.44,-0.537C0.44,-0.575 0.428,-0.604 0.403,-0.626C0.378,-0.647 0.343,-0.658 0.299,-0.658C0.269,-0.658 0.237,-0.653 0.203,-0.642C0.168,-0.632 0.134,-0.616 0.102,-0.594L0.097,-0.594L0.097,-0.697C0.12,-0.708 0.151,-0.719 0.189,-0.728C0.228,-0.737 0.265,-0.742 0.301,-0.742C0.376,-0.742 0.434,-0.724 0.477,-0.688C0.519,-0.652 0.54,-0.604 0.54,-0.542C0.54,-0.514 0.537,-0.489 0.53,-0.465C0.523,-0.441 0.512,-0.418 0.499,-0.396C0.486,-0.376 0.471,-0.356 0.454,-0.337C0.437,-0.317 0.416,-0.296 0.392,-0.272C0.357,-0.238 0.321,-0.205 0.284,-0.173C0.247,-0.141 0.212,-0.111 0.18,-0.083L0.571,-0.083L0.571,-0Z" style="fill:rgb(239,239,239);fill-rule:nonzero;"/>
                    </g>
                </g>
                <g transform="matrix(0.937742,0,0,1,2.92012,0)">
                    <g transform="matrix(42.2411,0,0,42.2411,46.9035,100.996)">
                        <path d="M0.507,-0.35C0.522,-0.336 0.535,-0.319 0.545,-0.297C0.556,-0.276 0.561,-0.249 0.561,-0.215C0.561,-0.182 0.555,-0.152 0.542,-0.124C0.53,-0.096 0.514,-0.072 0.492,-0.052C0.467,-0.029 0.439,-0.012 0.406,-0.001C0.372,0.01 0.336,0.015 0.297,0.015C0.257,0.015 0.217,0.01 0.178,0.001C0.139,-0.009 0.107,-0.019 0.082,-0.031L0.082,-0.133L0.089,-0.133C0.117,-0.115 0.149,-0.099 0.187,-0.087C0.224,-0.075 0.26,-0.069 0.295,-0.069C0.315,-0.069 0.337,-0.073 0.36,-0.08C0.383,-0.086 0.402,-0.097 0.417,-0.11C0.431,-0.124 0.443,-0.14 0.45,-0.157C0.457,-0.174 0.461,-0.196 0.461,-0.223C0.461,-0.249 0.457,-0.27 0.448,-0.287C0.44,-0.304 0.429,-0.318 0.414,-0.328C0.399,-0.338 0.382,-0.345 0.361,-0.348C0.34,-0.352 0.318,-0.354 0.293,-0.354L0.25,-0.354L0.25,-0.435L0.284,-0.435C0.333,-0.435 0.373,-0.445 0.402,-0.466C0.432,-0.487 0.446,-0.517 0.446,-0.557C0.446,-0.574 0.443,-0.59 0.435,-0.603C0.428,-0.616 0.417,-0.627 0.404,-0.635C0.39,-0.644 0.375,-0.65 0.359,-0.653C0.343,-0.656 0.325,-0.658 0.305,-0.658C0.274,-0.658 0.241,-0.652 0.206,-0.641C0.171,-0.63 0.138,-0.614 0.107,-0.594L0.103,-0.594L0.103,-0.696C0.126,-0.708 0.156,-0.718 0.195,-0.728C0.234,-0.737 0.271,-0.742 0.307,-0.742C0.343,-0.742 0.374,-0.739 0.401,-0.732C0.428,-0.726 0.452,-0.715 0.474,-0.701C0.498,-0.686 0.515,-0.667 0.527,-0.645C0.539,-0.622 0.545,-0.597 0.545,-0.567C0.545,-0.527 0.531,-0.491 0.503,-0.461C0.474,-0.431 0.441,-0.412 0.402,-0.404L0.402,-0.397C0.417,-0.395 0.435,-0.389 0.456,-0.381C0.476,-0.373 0.493,-0.362 0.507,-0.35Z" style="fill:rgb(239,239,239);fill-rule:nonzero;"/>
                    </g>
                    <g transform="matrix(42.2411,0,0,42.2411,73.758,100.996)">
                        <path d="M0.587,-0.205L0.479,-0.205L0.479,-0L0.386,-0L0.386,-0.205L0.038,-0.205L0.038,-0.317L0.39,-0.727L0.479,-0.727L0.479,-0.283L0.587,-0.283L0.587,-0.205ZM0.386,-0.283L0.386,-0.611L0.104,-0.283L0.386,-0.283Z" style="fill:rgb(239,239,239);fill-rule:nonzero;"/>
                    </g>
                </g>
            </g>
            <g>
                <g>
                    <g transform="matrix(2.36147,0,0,2.36147,-271.53,-6.37429)">
                        <circle cx="212.134" cy="6.628" r="1.312" style="fill:rgb(239,239,239);"/>
                    </g>
                    <g transform="matrix(2.34304,0.294477,-0.294477,2.34304,-258.67,-68.2826)">
                        <circle cx="212.134" cy="6.628" r="1.312" style="fill:rgb(239,239,239);"/>
                    </g>
                    <g transform="matrix(2.18777,0.888934,-0.888934,2.18777,-207.667,-189.668)">
                        <circle cx="212.134" cy="6.628" r="1.312" style="fill:rgb(239,239,239);"/>
                    </g>
                    <g transform="matrix(1.88,1.42904,-1.42904,1.88,-125.965,-294.89)">
                        <circle cx="212.134" cy="6.628" r="1.312" style="fill:rgb(239,239,239);"/>
                    </g>
                    <g transform="matrix(1.4379,1.87323,-1.87323,1.4379,-18.6806,-375.683)">
                        <circle cx="212.134" cy="6.628" r="1.312" style="fill:rgb(239,239,239);"/>
                    </g>
                    <g transform="matrix(0.907917,2.17996,-2.17996,0.907917,103.068,-424.645)">
                        <circle cx="212.134" cy="6.628" r="1.312" style="fill:rgb(239,239,239);"/>
                    </g>
                    <g transform="matrix(0.309887,2.34105,-2.34105,0.309887,234.825,-440.643)">
                        <circle cx="212.134" cy="6.628" r="1.312" style="fill:rgb(239,239,239);"/>
                    </g>
                    <g transform="matrix(1.44599e-16,2.36147,-2.36147,1.44599e-16,301.183,-435.557)">
                        <circle cx="212.134" cy="6.628" r="1.312" style="fill:rgb(239,239,239);"/>
                    </g>
                    <g transform="matrix(1.66981,1.66981,-1.66981,1.66981,-74.0598,-339.578)">
                        <circle cx="212.134" cy="6.628" r="1.312" style="fill:rgb(239,239,239);"/>
                    </g>
                    <g transform="matrix(0.611194,2.28101,-2.28101,0.611194,169.083,-437.062)">
                        <circle cx="212.134" cy="6.628" r="1.312" style="fill:rgb(239,239,239);"/>
                    </g>
                    <g transform="matrix(1.18074,2.0451,-2.0451,1.18074,41.0947,-404.325)">
                        <circle cx="212.134" cy="6.628" r="1.312" style="fill:rgb(239,239,239);"/>
                    </g>
                    <g transform="matrix(2.0451,1.18074,-1.18074,2.0451,-168.533,-247.234)">
                        <circle cx="212.134" cy="6.628" r="1.312" style="fill:rgb(239,239,239);"/>
                    </g>
                    <g transform="matrix(2.28101,0.611194,-0.611194,2.28101,-235.886,-133.584)">
                        <circle cx="212.134" cy="6.628" r="1.312" style="fill:rgb(239,239,239);"/>
                    </g>
                </g>
                <g transform="matrix(6.12323e-17,1,-1,6.12323e-17,294.809,-164.028)">
                    <g transform="matrix(2.36147,0,0,2.36147,-271.53,-6.37429)">
                        <circle cx="212.134" cy="6.628" r="1.312" style="fill:rgb(239,239,239);"/>
                    </g>
                    <g transform="matrix(2.34304,0.294477,-0.294477,2.34304,-258.67,-68.2826)">
                        <circle cx="212.134" cy="6.628" r="1.312" style="fill:rgb(239,239,239);"/>
                    </g>
                    <g transform="matrix(2.18777,0.888934,-0.888934,2.18777,-207.667,-189.668)">
                        <circle cx="212.134" cy="6.628" r="1.312" style="fill:rgb(239,239,239);"/>
                    </g>
                    <g transform="matrix(1.88,1.42904,-1.42904,1.88,-125.965,-294.89)">
                        <circle cx="212.134" cy="6.628" r="1.312" style="fill:rgb(239,239,239);"/>
                    </g>
                    <g transform="matrix(1.4379,1.87323,-1.87323,1.4379,-18.6806,-375.683)">
                        <circle cx="212.134" cy="6.628" r="1.312" style="fill:rgb(239,239,239);"/>
                    </g>
                    <g transform="matrix(0.907917,2.17996,-2.17996,0.907917,103.068,-424.645)">
                        <circle cx="212.134" cy="6.628" r="1.312" style="fill:rgb(239,239,239);"/>
                    </g>
                    <g transform="matrix(0.309887,2.34105,-2.34105,0.309887,234.825,-440.643)">
                        <circle cx="212.134" cy="6.628" r="1.312" style="fill:rgb(239,239,239);"/>
                    </g>
                    <g transform="matrix(1.44599e-16,2.36147,-2.36147,1.44599e-16,301.183,-435.557)">
                        <circle cx="212.134" cy="6.628" r="1.312" style="fill:rgb(239,239,239);"/>
                    </g>
                    <g transform="matrix(1.66981,1.66981,-1.66981,1.66981,-74.0598,-339.578)">
                        <circle cx="212.134" cy="6.628" r="1.312" style="fill:rgb(239,239,239);"/>
                    </g>
                    <g transform="matrix(0.611194,2.28101,-2.28101,0.611194,169.083,-437.062)">
                        <circle cx="212.134" cy="6.628" r="1.312" style="fill:rgb(239,239,239);"/>
                    </g>
                    <g transform="matrix(1.18074,2.0451,-2.0451,1.18074,41.0947,-404.325)">
                        <circle cx="212.134" cy="6.628" r="1.312" style="fill:rgb(239,239,239);"/>
                    </g>
                    <g transform="matrix(2.0451,1.18074,-1.18074,2.0451,-168.533,-247.234)">
                        <circle cx="212.134" cy="6.628" r="1.312" style="fill:rgb(239,239,239);"/>
                    </g>
                    <g transform="matrix(2.28101,0.611194,-0.611194,2.28101,-235.886,-133.584)">
                        <circle cx="212.134" cy="6.628" r="1.312" style="fill:rgb(239,239,239);"/>
                    </g>
                </g>
                <g transform="matrix(-1,-1.22465e-16,1.22465e-16,-1,458.837,130.781)">
                    <g transform="matrix(2.36147,0,0,2.36147,-271.53,-6.37429)">
                        <circle cx="212.134" cy="6.628" r="1.312" style="fill:rgb(239,239,239);"/>
                    </g>
                    <g transform="matrix(2.34304,0.294477,-0.294477,2.34304,-258.67,-68.2826)">
                        <circle cx="212.134" cy="6.628" r="1.312" style="fill:rgb(239,239,239);"/>
                    </g>
                    <g transform="matrix(2.18777,0.888934,-0.888934,2.18777,-207.667,-189.668)">
                        <circle cx="212.134" cy="6.628" r="1.312" style="fill:rgb(239,239,239);"/>
                    </g>
                    <g transform="matrix(1.88,1.42904,-1.42904,1.88,-125.965,-294.89)">
                        <circle cx="212.134" cy="6.628" r="1.312" style="fill:rgb(239,239,239);"/>
                    </g>
                    <g transform="matrix(1.4379,1.87323,-1.87323,1.4379,-18.6806,-375.683)">
                        <circle cx="212.134" cy="6.628" r="1.312" style="fill:rgb(239,239,239);"/>
                    </g>
                    <g transform="matrix(0.907917,2.17996,-2.17996,0.907917,103.068,-424.645)">
                        <circle cx="212.134" cy="6.628" r="1.312" style="fill:rgb(239,239,239);"/>
                    </g>
                    <g transform="matrix(0.309887,2.34105,-2.34105,0.309887,234.825,-440.643)">
                        <circle cx="212.134" cy="6.628" r="1.312" style="fill:rgb(239,239,239);"/>
                    </g>
                    <g transform="matrix(1.44599e-16,2.36147,-2.36147,1.44599e-16,301.183,-435.557)">
                        <circle cx="212.134" cy="6.628" r="1.312" style="fill:rgb(239,239,239);"/>
                    </g>
                    <g transform="matrix(1.66981,1.66981,-1.66981,1.66981,-74.0598,-339.578)">
                        <circle cx="212.134" cy="6.628" r="1.312" style="fill:rgb(239,239,239);"/>
                    </g>
                    <g transform="matrix(0.611194,2.28101,-2.28101,0.611194,169.083,-437.062)">
                        <circle cx="212.134" cy="6.628" r="1.312" style="fill:rgb(239,239,239);"/>
                    </g>
                    <g transform="matrix(1.18074,2.0451,-2.0451,1.18074,41.0947,-404.325)">
                        <circle cx="212.134" cy="6.628" r="1.312" style="fill:rgb(239,239,239);"/>
                    </g>
                    <g transform="matrix(2.0451,1.18074,-1.18074,2.0451,-168.533,-247.234)">
                        <circle cx="212.134" cy="6.628" r="1.312" style="fill:rgb(239,239,239);"/>
                    </g>
                    <g transform="matrix(2.28101,0.611194,-0.611194,2.28101,-235.886,-133.584)">
                        <circle cx="212.134" cy="6.628" r="1.312" style="fill:rgb(239,239,239);"/>
                    </g>
                </g>
                <g transform="matrix(6.12323e-17,-1,1,6.12323e-17,164.028,294.809)">
                    <g transform="matrix(2.36147,0,0,2.36147,-271.53,-6.37429)">
                        <circle cx="212.134" cy="6.628" r="1.312" style="fill:rgb(239,239,239);"/>
                    </g>
                    <g transform="matrix(2.34304,0.294477,-0.294477,2.34304,-258.67,-68.2826)">
                        <circle cx="212.134" cy="6.628" r="1.312" style="fill:rgb(239,239,239);"/>
                    </g>
                    <g transform="matrix(2.18777,0.888934,-0.888934,2.18777,-207.667,-189.668)">
                        <circle cx="212.134" cy="6.628" r="1.312" style="fill:rgb(239,239,239);"/>
                    </g>
                    <g transform="matrix(1.88,1.42904,-1.42904,1.88,-125.965,-294.89)">
                        <circle cx="212.134" cy="6.628" r="1.312" style="fill:rgb(239,239,239);"/>
                    </g>
                    <g transform="matrix(1.4379,1.87323,-1.87323,1.4379,-18.6806,-375.683)">
                        <circle cx="212.134" cy="6.628" r="1.312" style="fill:rgb(239,239,239);"/>
                    </g>
                    <g transform="matrix(0.907917,2.17996,-2.17996,0.907917,103.068,-424.645)">
                        <circle cx="212.134" cy="6.628" r="1.312" style="fill:rgb(239,239,239);"/>
                    </g>
                    <g transform="matrix(0.309887,2.34105,-2.34105,0.309887,234.825,-440.643)">
                        <circle cx="212.134" cy="6.628" r="1.312" style="fill:rgb(239,239,239);"/>
                    </g>
                    <g transform="matrix(1.44599e-16,2.36147,-2.36147,1.44599e-16,301.183,-435.557)">
                        <circle cx="212.134" cy="6.628" r="1.312" style="fill:rgb(239,239,239);"/>
                    </g>
                    <g transform="matrix(1.66981,1.66981,-1.66981,1.66981,-74.0598,-339.578)">
                        <circle cx="212.134" cy="6.628" r="1.312" style="fill:rgb(239,239,239);"/>
                    </g>
                    <g transform="matrix(0.611194,2.28101,-2.28101,0.611194,169.083,-437.062)">
                        <circle cx="212.134" cy="6.628" r="1.312" style="fill:rgb(239,239,239);"/>
                    </g>
                    <g transform="matrix(1.18074,2.0451,-2.0451,1.18074,41.0947,-404.325)">
                        <circle cx="212.134" cy="6.628" r="1.312" style="fill:rgb(239,239,239);"/>
                    </g>
                    <g transform="matrix(2.0451,1.18074,-1.18074,2.0451,-168.533,-247.234)">
                        <circle cx="212.134" cy="6.628" r="1.312" style="fill:rgb(239,239,239);"/>
                    </g>
                    <g transform="matrix(2.28101,0.611194,-0.611194,2.28101,-235.886,-133.584)">
                        <circle cx="212.134" cy="6.628" r="1.312" style="fill:rgb(239,239,239);"/>
                    </g>
                </g>
            </g>
        </g>
    </g>
</svg>
