<?xml version="1.0" encoding="UTF-8" standalone="no"?>
<!DOCTYPE svg PUBLIC "-//W3C//DTD SVG 1.1//EN" "http://www.w3.org/Graphics/SVG/1.1/DTD/svg11.dtd">
<svg width="100%" height="100%" viewBox="0 0 144 144" version="1.1" xmlns="http://www.w3.org/2000/svg" xmlns:xlink="http://www.w3.org/1999/xlink" xml:space="preserve" xmlns:serif="http://www.serif.com/" style="fill-rule:evenodd;clip-rule:evenodd;stroke-linejoin:round;stroke-miterlimit:2;">
    <g transform="matrix(1,0,0,1,0,-159.864)">
        <g id="category" transform="matrix(1.18217,0,0,1.18217,-199.211,154.561)">
            <rect x="168.513" y="4.486" width="121.81" height="121.81" style="fill:none;"/>
            <g transform="matrix(0.972222,0,0,0.972222,8.53279,1.81641)">
                <g transform="matrix(3.77933,0,0,3.77933,-574.526,-15.6022)">
                    <circle cx="212.134" cy="6.628" r="1.312" style="fill:rgb(223,223,223);"/>
                </g>
                <g transform="matrix(2.67239,2.67239,-2.67239,2.67239,-282.436,-558.783)">
                    <circle cx="212.134" cy="6.628" r="1.312" style="fill:rgb(223,223,223);"/>
                </g>
                <g transform="matrix(3.65055,0.978162,-0.978162,3.65055,-526.245,-220.343)">
                    <circle cx="212.134" cy="6.628" r="1.312" style="fill:rgb(223,223,223);"/>
                </g>
                <g transform="matrix(3.27299,1.88966,-1.88966,3.27299,-426.619,-405.612)">
                    <circle cx="212.134" cy="6.628" r="1.312" style="fill:rgb(223,223,223);"/>
                </g>
                <g transform="matrix(1.88966,3.27299,-3.27299,1.88966,-103.523,-669.418)">
                    <circle cx="212.134" cy="6.628" r="1.312" style="fill:rgb(223,223,223);"/>
                </g>
                <g transform="matrix(0.978162,3.65055,-3.65055,0.978162,97.9288,-729.976)">
                    <circle cx="212.134" cy="6.628" r="1.312" style="fill:rgb(223,223,223);"/>
                </g>
                <g transform="matrix(2.31417e-16,3.77933,-3.77933,2.31417e-16,308.19,-736.332)">
                    <circle cx="212.134" cy="6.628" r="1.312" style="fill:rgb(223,223,223);"/>
                </g>
                <g transform="matrix(-0.978162,3.65055,-3.65055,-0.978162,512.931,-688.051)">
                    <circle cx="212.134" cy="6.628" r="1.312" style="fill:rgb(223,223,223);"/>
                </g>
                <g transform="matrix(-1.88966,3.27299,-3.27299,-1.88966,698.2,-588.425)">
                    <circle cx="212.134" cy="6.628" r="1.312" style="fill:rgb(223,223,223);"/>
                </g>
                <g transform="matrix(-2.67239,2.67239,-2.67239,-2.67239,851.37,-444.242)">
                    <circle cx="212.134" cy="6.628" r="1.312" style="fill:rgb(223,223,223);"/>
                </g>
                <g transform="matrix(-3.27299,1.88966,-1.88966,-3.27299,962.005,-265.329)">
                    <circle cx="212.134" cy="6.628" r="1.312" style="fill:rgb(223,223,223);"/>
                </g>
                <g transform="matrix(-3.65055,0.978162,-0.978162,-3.65055,1022.56,-63.8772)">
                    <circle cx="212.134" cy="6.628" r="1.312" style="fill:rgb(223,223,223);"/>
                </g>
                <g transform="matrix(-3.77933,4.62834e-16,-4.62834e-16,-3.77933,1028.92,146.384)">
                    <circle cx="212.134" cy="6.628" r="1.312" style="fill:rgb(223,223,223);"/>
                </g>
                <g transform="matrix(-3.65055,-0.978162,0.978162,-3.65055,980.638,351.125)">
                    <circle cx="212.134" cy="6.628" r="1.312" style="fill:rgb(223,223,223);"/>
                </g>
                <g transform="matrix(-3.27299,-1.88966,1.88966,-3.27299,881.012,536.394)">
                    <circle cx="212.134" cy="6.628" r="1.312" style="fill:rgb(223,223,223);"/>
                </g>
                <g transform="matrix(-2.67239,-2.67239,2.67239,-2.67239,736.829,689.565)">
                    <circle cx="212.134" cy="6.628" r="1.312" style="fill:rgb(223,223,223);"/>
                </g>
                <g transform="matrix(-1.88966,-3.27299,3.27299,-1.88966,557.916,800.199)">
                    <circle cx="212.134" cy="6.628" r="1.312" style="fill:rgb(223,223,223);"/>
                </g>
                <g transform="matrix(-0.978162,-3.65055,3.65055,-0.978162,356.464,860.757)">
                    <circle cx="212.134" cy="6.628" r="1.312" style="fill:rgb(223,223,223);"/>
                </g>
                <g transform="matrix(-6.94251e-16,-3.77933,3.77933,-6.94251e-16,146.204,867.113)">
                    <circle cx="212.134" cy="6.628" r="1.312" style="fill:rgb(223,223,223);"/>
                </g>
                <g transform="matrix(0.978162,-3.65055,3.65055,0.978162,-58.5375,818.832)">
                    <circle cx="212.134" cy="6.628" r="1.312" style="fill:rgb(223,223,223);"/>
                </g>
                <g transform="matrix(1.88966,-3.27299,3.27299,1.88966,-243.806,719.206)">
                    <circle cx="212.134" cy="6.628" r="1.312" style="fill:rgb(223,223,223);"/>
                </g>
                <g transform="matrix(2.67239,-2.67239,2.67239,2.67239,-396.977,575.023)">
                    <circle cx="212.134" cy="6.628" r="1.312" style="fill:rgb(223,223,223);"/>
                </g>
                <g transform="matrix(3.27299,-1.88966,1.88966,3.27299,-507.612,396.11)">
                    <circle cx="212.134" cy="6.628" r="1.312" style="fill:rgb(223,223,223);"/>
                </g>
                <g transform="matrix(3.65055,-0.978162,0.978162,3.65055,-568.17,194.659)">
                    <circle cx="212.134" cy="6.628" r="1.312" style="fill:rgb(223,223,223);"/>
                </g>
            </g>
            <g transform="matrix(0.69901,0,0,0.745418,151.095,27.8328)">
                <g transform="matrix(42.2411,0,0,42.2411,46.9035,65.7407)">
                    <path d="M0.529,-0L0.136,-0L0.136,-0.074L0.287,-0.074L0.287,-0.562L0.136,-0.562L0.136,-0.628C0.156,-0.628 0.178,-0.63 0.202,-0.633C0.225,-0.636 0.243,-0.641 0.255,-0.648C0.27,-0.656 0.282,-0.666 0.29,-0.679C0.299,-0.691 0.304,-0.708 0.305,-0.729L0.381,-0.729L0.381,-0.074L0.529,-0.074L0.529,-0Z" style="fill:rgb(223,223,223);fill-rule:nonzero;"/>
                </g>
                <g transform="matrix(42.2411,0,0,42.2411,73.758,65.7407)">
                    <path d="M0.571,-0L0.079,-0L0.079,-0.102C0.113,-0.131 0.147,-0.161 0.181,-0.19C0.216,-0.219 0.248,-0.248 0.277,-0.277C0.34,-0.338 0.383,-0.386 0.406,-0.422C0.429,-0.457 0.44,-0.496 0.44,-0.537C0.44,-0.575 0.428,-0.604 0.403,-0.626C0.378,-0.647 0.343,-0.658 0.299,-0.658C0.269,-0.658 0.237,-0.653 0.203,-0.642C0.168,-0.632 0.134,-0.616 0.102,-0.594L0.097,-0.594L0.097,-0.697C0.12,-0.708 0.151,-0.719 0.189,-0.728C0.228,-0.737 0.265,-0.742 0.301,-0.742C0.376,-0.742 0.434,-0.724 0.477,-0.688C0.519,-0.652 0.54,-0.604 0.54,-0.542C0.54,-0.514 0.537,-0.489 0.53,-0.465C0.523,-0.441 0.512,-0.418 0.499,-0.396C0.486,-0.376 0.471,-0.356 0.454,-0.337C0.437,-0.317 0.416,-0.296 0.392,-0.272C0.357,-0.238 0.321,-0.205 0.284,-0.173C0.247,-0.141 0.212,-0.111 0.18,-0.083L0.571,-0.083L0.571,-0Z" style="fill:rgb(223,223,223);fill-rule:nonzero;"/>
                </g>
                <g transform="matrix(42.2411,0,0,42.2411,100.612,65.7407)">
                    <path d="M0.286,-0.406L0.169,-0.406L0.169,-0.545L0.286,-0.545L0.286,-0.406ZM0.286,-0L0.169,-0L0.169,-0.139L0.286,-0.139L0.286,-0Z" style="fill:rgb(223,223,223);fill-rule:nonzero;"/>
                </g>
                <g transform="matrix(42.2411,0,0,42.2411,119.794,65.7407)">
                    <path d="M0.507,-0.35C0.522,-0.336 0.535,-0.319 0.545,-0.297C0.556,-0.276 0.561,-0.249 0.561,-0.215C0.561,-0.182 0.555,-0.152 0.542,-0.124C0.53,-0.096 0.514,-0.072 0.492,-0.052C0.467,-0.029 0.439,-0.012 0.406,-0.001C0.372,0.01 0.336,0.015 0.297,0.015C0.257,0.015 0.217,0.01 0.178,0.001C0.139,-0.009 0.107,-0.019 0.082,-0.031L0.082,-0.133L0.089,-0.133C0.117,-0.115 0.149,-0.099 0.187,-0.087C0.224,-0.075 0.26,-0.069 0.295,-0.069C0.315,-0.069 0.337,-0.073 0.36,-0.08C0.383,-0.086 0.402,-0.097 0.417,-0.11C0.431,-0.124 0.443,-0.14 0.45,-0.157C0.457,-0.174 0.461,-0.196 0.461,-0.223C0.461,-0.249 0.457,-0.27 0.448,-0.287C0.44,-0.304 0.429,-0.318 0.414,-0.328C0.399,-0.338 0.382,-0.345 0.361,-0.348C0.34,-0.352 0.318,-0.354 0.293,-0.354L0.25,-0.354L0.25,-0.435L0.284,-0.435C0.333,-0.435 0.373,-0.445 0.402,-0.466C0.432,-0.487 0.446,-0.517 0.446,-0.557C0.446,-0.574 0.443,-0.59 0.435,-0.603C0.428,-0.616 0.417,-0.627 0.404,-0.635C0.39,-0.644 0.375,-0.65 0.359,-0.653C0.343,-0.656 0.325,-0.658 0.305,-0.658C0.274,-0.658 0.241,-0.652 0.206,-0.641C0.171,-0.63 0.138,-0.614 0.107,-0.594L0.103,-0.594L0.103,-0.696C0.126,-0.708 0.156,-0.718 0.195,-0.728C0.234,-0.737 0.271,-0.742 0.307,-0.742C0.343,-0.742 0.374,-0.739 0.401,-0.732C0.428,-0.726 0.452,-0.715 0.474,-0.701C0.498,-0.686 0.515,-0.667 0.527,-0.645C0.539,-0.622 0.545,-0.597 0.545,-0.567C0.545,-0.527 0.531,-0.491 0.503,-0.461C0.474,-0.431 0.441,-0.412 0.402,-0.404L0.402,-0.397C0.417,-0.395 0.435,-0.389 0.456,-0.381C0.476,-0.373 0.493,-0.362 0.507,-0.35Z" style="fill:rgb(223,223,223);fill-rule:nonzero;"/>
                </g>
                <g transform="matrix(42.2411,0,0,42.2411,146.649,65.7407)">
                    <path d="M0.587,-0.205L0.479,-0.205L0.479,-0L0.386,-0L0.386,-0.205L0.038,-0.205L0.038,-0.317L0.39,-0.727L0.479,-0.727L0.479,-0.283L0.587,-0.283L0.587,-0.205ZM0.386,-0.283L0.386,-0.611L0.104,-0.283L0.386,-0.283Z" style="fill:rgb(223,223,223);fill-rule:nonzero;"/>
                </g>
            </g>
        </g>
    </g>
</svg>
